<?xml version="1.0" standalone="no"?>
<!DOCTYPE svg PUBLIC "-//W3C//DTD SVG 20010904//EN"
 "http://www.w3.org/TR/2001/REC-SVG-20010904/DTD/svg10.dtd">
<svg version="1.0" xmlns="http://www.w3.org/2000/svg"
 width="255.000000pt" height="225.000000pt" viewBox="0 0 225.000000 225.000000"
 preserveAspectRatio="xMidYMid meet">
<metadata>
Created by potrace 1.16, written by Peter Selinger 2001-2019
</metadata>
<g transform="translate(0.000000,225.000000) scale(0.100000,-0.100000)"
fill="#FF2023" stroke="none">
<path d="M1049 2137 c-75 -28 -142 -98 -155 -163 -5 -25 -16 -35 -75 -63 -80
-39 -162 -121 -179 -179 -14 -52 -12 -151 4 -204 29 -99 104 -156 241 -184 61
-13 120 -15 279 -12 185 4 206 6 268 30 136 51 179 112 186 260 4 74 1 93 -17
131 -31 63 -94 121 -172 159 -58 28 -68 37 -73 63 -9 45 -61 111 -109 139 -53
31 -147 42 -198 23z"/>
<path d="M233 1900 c-45 -18 -57 -53 -50 -153 14 -202 75 -353 194 -478 l74
-77 -3 -74 -3 -73 -195 -3 c-183 -2 -195 -4 -217 -24 -33 -31 -32 -90 3 -117
25 -20 39 -21 229 -21 l202 0 16 -60 c21 -73 21 -80 3 -80 -8 0 -45 -16 -83
-36 -174 -92 -272 -229 -302 -423 -14 -90 -7 -135 26 -161 35 -28 70 -25 102
8 23 22 29 39 34 93 16 169 102 287 259 352 50 20 51 20 64 1 61 -86 129 -165
184 -211 64 -54 244 -152 256 -140 4 3 8 165 11 359 3 266 8 366 19 405 26 95
95 108 132 25 15 -32 18 -88 22 -409 3 -204 8 -374 12 -378 11 -11 157 62 229
115 70 52 144 132 194 208 15 23 32 42 37 42 24 0 139 -63 179 -99 73 -63 129
-192 129 -294 0 -29 7 -46 29 -68 36 -36 70 -37 108 -5 26 22 28 30 27 93 -2
145 -56 274 -155 374 -63 64 -166 131 -221 144 -33 8 -33 11 -12 87 l17 58
202 0 c190 0 204 1 229 21 32 26 35 75 5 112 l-20 27 -197 2 -197 3 -6 72 -7
73 77 77 c123 123 185 276 198 483 5 86 3 97 -16 121 -27 35 -63 43 -101 24
-32 -16 -50 -62 -50 -127 0 -129 -65 -299 -144 -379 -127 -129 -472 -211 -759
-180 -197 22 -417 101 -500 180 -82 79 -145 242 -147 381 0 63 -19 109 -50
125 -33 17 -36 17 -67 5z"/>
</g>
</svg>
